<?xml version="1.0" encoding="UTF-8"?> <svg xmlns="http://www.w3.org/2000/svg" xmlns:xlink="http://www.w3.org/1999/xlink" width="1400px" height="1011px" viewBox="0 0 1400 1011" version="1.1"><title>21217 - TUT - Blog Post@1x</title><defs><rect id="path-1" x="0" y="0" width="1400" height="1011" rx="2"></rect><radialGradient cx="50%" cy="50.3959037%" fx="50%" fy="50.3959037%" r="115.95239%" gradientTransform="translate(0.500000,0.503959),scale(0.722143,1.000000),rotate(90.000000),translate(-0.500000,-0.503959)" id="radialGradient-2"><stop stop-color="#000000" stop-opacity="0" offset="0%"></stop><stop stop-color="#000000" offset="100%"></stop></radialGradient></defs><g id="21217---TUT---Blog-Post" stroke="none" stroke-width="1" fill="none" fill-rule="evenodd"><rect fill="#000000" x="0" y="0" width="1400" height="1011"></rect><g id="Rectangle" style="mix-blend-mode: difference;"><use fill="#53575B" xlink:href="#path-1"></use><use fill-opacity="0.45" fill="#000000" xlink:href="#path-1"></use></g><rect id="Rectangle" fill="url(#radialGradient-2)" x="0" y="0" width="1400" height="1011"></rect><g id="Group-3" opacity="0.5" transform="translate(-1033.000000, -1208.000000)" stroke="#53575B"><rect id="Rectangle" stroke-width="1.056" opacity="0.900000036" transform="translate(1734.051000, 1732.929000) rotate(45.000000) translate(-1734.051000, -1732.929000) " x="1317.228" y="1316.106" width="833.646" height="833.646"></rect><rect id="Rectangle" stroke-width="1.122" opacity="0.800000012" transform="translate(1734.051000, 1734.051000) rotate(45.000000) translate(-1734.051000, -1734.051000) " x="1108.536" y="1108.536" width="1251.03" height="1251.03"></rect><rect id="Rectangle" stroke-width="1.5708" opacity="0.400000006" transform="translate(1734.051000, 1734.051000) rotate(45.000000) translate(-1734.051000, -1734.051000) " x="858.33" y="858.33" width="1751.442" height="1751.442"></rect><rect id="Rectangle" stroke-width="2.19912" opacity="0.349999994" transform="translate(1734.051000, 1734.051000) rotate(45.000000) translate(-1734.051000, -1734.051000) " x="508.266" y="508.266" width="2451.57" height="2451.57"></rect></g><g id="Group-3" opacity="0.5" transform="translate(-1033.000000, -1246.000000)" stroke="#53575B"><rect id="Rectangle" stroke-width="1.056" opacity="0.900000036" transform="translate(1734.051000, 1732.929000) rotate(45.000000) translate(-1734.051000, -1732.929000) " x="1317.228" y="1316.106" width="833.646" height="833.646"></rect><rect id="Rectangle" stroke-width="1.122" opacity="0.800000012" transform="translate(1734.051000, 1734.051000) rotate(45.000000) translate(-1734.051000, -1734.051000) " x="1108.536" y="1108.536" width="1251.03" height="1251.03"></rect><rect id="Rectangle" stroke-width="1.5708" opacity="0.400000006" transform="translate(1734.051000, 1734.051000) rotate(45.000000) translate(-1734.051000, -1734.051000) " x="858.33" y="858.33" width="1751.442" height="1751.442"></rect><rect id="Rectangle" stroke-width="2.19912" opacity="0.349999994" transform="translate(1734.051000, 1734.051000) rotate(45.000000) translate(-1734.051000, -1734.051000) " x="508.266" y="508.266" width="2451.57" height="2451.57"></rect></g><g id="Group" transform="translate(360.000000, 398.000000)" fill="#FFFFFF" fill-rule="nonzero"><g id="Logo/TUT/White"><path d="M99.4590747,15.9715302 C99.4590747,7.01779359 106.718861,0 115.672598,0 C124.626335,0 131.886121,7.25978648 131.886121,15.9715302 C131.886121,24.9252669 124.626335,31.9430605 115.672598,31.9430605 C106.718861,31.9430605 99.4590747,24.9252669 99.4590747,15.9715302 L99.4590747,15.9715302 Z" id="Path"></path><polygon id="Path" points="108.654804 56.6263345 108.654804 47.430605 74.0498221 26.3772242 74.0498221 43.0747331"></polygon><polygon id="Path" points="122.448399 56.3843416 122.448399 47.430605 156.811388 26.6192171 156.811388 43.0747331"></polygon><polygon id="Path" points="108.412811 86.8754448 108.412811 63.4021352 58.3202847 43.316726 58.3202847 69.6939502"></polygon><polygon id="Path" points="122.690391 86.8754448 122.690391 63.1601423 172.782918 43.5587189 172.782918 69.6939502"></polygon><polygon id="Path" points="108.654804 93.4092527 33.8790036 67.5160142 33.8790036 120.270463"></polygon><polygon id="Path" points="122.932384 93.4092527 196.256228 67.5160142 196.256228 120.270463"></polygon><polygon id="Path" points="102.362989 102.846975 128.256228 102.846975 128.256228 173.024911 102.362989 173.024911"></polygon><polygon id="Path" points="93.8932384 171.330961 93.8932384 105.508897 62.6761566 116.882562 62.6761566 158.505338"></polygon><polygon id="Path" points="135.758007 105.508897 166.733096 116.882562 166.733096 158.505338 135.758007 171.330961"></polygon><path d="M206.419929,31.2170819 C221.181495,48.6405694 230.377224,74.0498221 230.377224,100.911032 C230.135231,165.039146 178.590747,215.373665 115.430605,215.373665 C52.0284698,215.373665 0,164.797153 0,100.911032 C0,74.5338078 8.71174377,51.0604982 23.9572954,31.4590747 C16.9395018,42.5907473 14.2775801,47.6725979 10.405694,62.9181495 C7.74377224,73.0818505 7.01779359,84.455516 7.01779359,94.86121 C8.46975089,119.302491 15.9715302,135.032028 29.0391459,154.633452 C48.6405694,180.52669 78.8896797,197.224199 115.188612,197.224199 C175.202847,197.224199 222.633452,150.27758 223.601423,91.4733096 C223.359431,69.4519573 217.793594,49.1245552 206.419929,31.2170819 L206.419929,31.2170819 Z" id="Path"></path><path d="M529.964413,113.010676 L533.836299,116.640569 L531.174377,118.576512 C532.142349,120.02847 532.626335,121.72242 532.626335,123.658363 C532.626335,126.320285 531.900356,128.498221 530.206406,130.192171 C528.512456,131.886121 526.33452,132.6121 523.914591,132.6121 L522.220641,132.6121 L522.220641,132.6121 L521.252669,132.370107 C521.252669,132.370107 520.768683,132.6121 520.042705,132.854093 C519.316726,133.096085 519.074733,133.580071 519.074733,133.822064 C519.074733,134.30605 519.558719,134.790036 520.52669,134.790036 C521.010676,134.790036 521.736655,134.790036 522.946619,134.548043 C524.156584,134.30605 524.882562,134.30605 525.850534,134.30605 C531.41637,134.30605 534.078292,136.483986 534.078292,140.839858 C534.078292,143.259786 532.868327,145.19573 530.690391,146.647687 C528.512456,148.099644 525.850534,148.825623 522.704626,148.825623 C518.590747,148.341637 515.202847,147.131673 512.298932,144.953737 L515.928826,140.597865 C517.864769,142.291815 520.042705,143.259786 522.462633,143.259786 C524.156584,143.259786 525.366548,143.017794 526.576512,142.533808 C527.544484,142.049822 528.270463,141.323843 528.270463,140.597865 C528.270463,139.145907 527.060498,138.419929 524.882562,138.419929 C524.222582,138.419929 523.362607,138.419929 522.302638,138.601742 L521.978648,138.661922 C520.768683,138.903915 519.800712,138.903915 519.074733,138.903915 C515.202847,138.903915 513.266904,137.451957 513.266904,134.790036 C513.266904,134.064057 513.508897,133.096085 514.234875,132.370107 C514.960854,131.644128 515.686833,131.160142 516.412811,130.676157 C513.75089,128.982206 512.298932,126.320285 512.298932,123.174377 C512.298932,120.512456 513.266904,118.576512 515.202847,116.882562 C517.13879,115.188612 519.558719,114.462633 522.220641,114.462633 C524.398577,114.462633 526.092527,114.946619 527.786477,115.672598 L529.964413,113.010676 Z M540.370107,114.946619 L546.903915,131.644128 L552.953737,114.946619 L558.761566,114.946619 L548.113879,142.775801 C547.629893,144.469751 546.177936,145.679715 544.241993,146.647687 C542.30605,147.615658 539.886121,148.341637 537.224199,148.341637 L537.224199,143.259786 C541.580071,143.259786 543.758007,142.291815 543.758007,140.113879 C543.758007,138.661922 543.274021,136.483986 542.064057,133.580071 L534.562278,114.946619 L540.370107,114.946619 Z M267.160142,114.462633 C270.790036,114.462633 273.69395,115.672598 275.629893,117.850534 C277.565836,120.02847 278.775801,123.174377 278.775801,127.046263 C278.775801,130.918149 277.807829,133.822064 275.629893,136.241993 C273.451957,138.419929 270.790036,139.629893 267.160142,139.629893 C263.530249,139.629893 260.626335,138.419929 258.690391,136.241993 C256.754448,133.580071 255.544484,130.434164 255.544484,126.80427 C255.544484,123.174377 256.512456,120.02847 258.690391,117.850534 C260.868327,115.430605 263.530249,114.462633 267.160142,114.462633 Z M458.092527,114.462633 C461.72242,114.462633 464.626335,115.672598 466.562278,117.850534 C468.498221,120.02847 469.708185,123.174377 469.708185,127.046263 C469.708185,130.918149 468.740214,133.822064 466.562278,136.241993 C464.384342,138.661922 461.72242,139.629893 458.092527,139.629893 C454.462633,139.629893 451.558719,138.419929 449.622776,136.241993 C447.44484,133.580071 446.476868,130.434164 446.476868,126.80427 C446.476868,123.174377 447.44484,120.02847 449.622776,117.850534 C451.800712,115.672598 454.462633,114.462633 458.092527,114.462633 Z M497.779359,114.462633 C501.409253,114.462633 504.313167,115.672598 506.24911,117.850534 C508.185053,120.02847 509.395018,123.174377 509.395018,127.046263 C509.395018,130.918149 508.427046,133.822064 506.24911,136.241993 C504.071174,138.661922 501.409253,139.629893 497.779359,139.629893 C494.149466,139.629893 491.245552,138.419929 489.309609,136.241993 C487.373665,133.580071 486.163701,130.434164 486.163701,126.80427 C486.163701,123.174377 487.131673,120.02847 489.309609,117.850534 C491.487544,115.672598 494.149466,114.462633 497.779359,114.462633 Z M353.309609,114.462633 C356.939502,114.462633 359.601423,115.430605 361.779359,117.608541 C363.957295,119.786477 364.925267,122.448399 364.925267,125.594306 C364.925267,126.078292 364.683274,127.046263 364.441281,128.498221 L347.259786,128.498221 C347.259786,130.434164 347.985765,131.886121 349.19573,132.854093 C350.405694,133.822064 352.099644,134.548043 354.035587,134.548043 C356.697509,134.548043 358.633452,133.822064 359.843416,132.6121 L362.021352,136.967972 C360.085409,138.661922 357.181495,139.3879 353.067616,139.3879 C349.437722,139.3879 346.533808,138.419929 344.355872,136.241993 C342.177936,134.064057 341.209964,131.160142 341.209964,127.288256 C341.209964,123.41637 342.419929,120.512456 344.839858,118.092527 C347.259786,115.672598 349.921708,114.462633 353.309609,114.462633 Z M480.597865,104.298932 L480.597865,131.402135 C480.597865,134.30605 481.565836,136.241993 483.259786,136.725979 C482.291815,138.419929 480.839858,139.145907 478.661922,139.145907 C476,139.145907 474.790036,137.451957 474.790036,133.822064 L474.790036,105.75089 L475.032028,105.75089 L480.597865,104.298932 Z M432.683274,114.462633 C435.587189,114.462633 437.765125,115.430605 439.459075,117.124555 C441.153025,118.818505 441.879004,121.238434 441.879004,124.384342 L441.879004,139.145907 L436.313167,139.145907 L436.313167,125.11032 C436.313167,123.174377 435.829181,121.480427 435.103203,120.512456 C434.377224,119.544484 432.925267,119.060498 431.231317,119.060498 C430.505338,119.060498 429.537367,119.302491 428.569395,119.786477 C427.601423,120.270463 426.875445,120.754448 426.391459,121.480427 L426.391459,138.903915 L420.825623,138.903915 L420.825623,114.946619 L424.939502,114.946619 L425.907473,117.124555 C427.359431,115.430605 429.779359,114.462633 432.683274,114.462633 Z M339.274021,105.992883 L339.274021,111.074733 L328.384342,111.074733 L328.384342,138.903915 L322.576512,138.903915 L322.576512,111.074733 L311.928826,111.074733 L311.928826,105.992883 L339.274021,105.992883 Z M381.13879,114.220641 C384.042705,114.220641 386.462633,115.188612 388.398577,116.640569 L385.978648,120.754448 C384.768683,119.544484 382.83274,118.818505 380.654804,118.818505 C378.476868,118.818505 376.782918,119.544484 375.572954,120.996441 C374.362989,122.448399 373.637011,124.384342 373.637011,126.80427 C373.637011,131.886121 376.05694,134.30605 380.896797,134.30605 C383.074733,134.30605 384.768683,133.580071 386.462633,132.128114 L388.640569,136.483986 C386.946619,137.451957 385.494662,138.177936 384.284698,138.419929 C383.074733,138.661922 381.622776,138.903915 379.928826,138.903915 C376.298932,138.903915 373.153025,137.935943 370.975089,135.758007 C368.797153,133.580071 367.829181,130.676157 367.829181,126.80427 C367.829181,122.932384 369.039146,120.02847 371.459075,117.608541 C373.879004,115.188612 377.024911,114.220641 381.13879,114.220641 Z M293.779359,104.782918 C295.231317,104.782918 296.683274,105.024911 298.619217,105.75089 L296.925267,110.106762 C295.715302,109.622776 294.747331,109.380783 294.021352,109.380783 C293.053381,109.380783 292.085409,109.864769 291.359431,110.83274 C290.633452,111.800712 290.149466,112.768683 290.149466,114.220641 L290.149466,114.704626 L290.149466,114.704626 L295.231317,114.704626 L295.231317,119.302491 L290.391459,119.302491 L290.391459,138.661922 L284.825623,138.661922 L284.825623,119.302491 L281.19573,119.302491 L281.19573,114.704626 L284.825623,114.704626 C284.825623,111.800712 285.793594,109.380783 287.487544,107.44484 C289.181495,105.75089 291.117438,104.782918 293.779359,104.782918 Z M398.80427,104.298932 L398.80427,116.156584 C400.256228,114.946619 402.192171,114.220641 404.854093,114.220641 C408,114.220641 410.177936,114.946619 411.871886,116.640569 C413.565836,118.33452 414.291815,120.754448 414.291815,123.900356 L414.291815,138.661922 L408.725979,138.661922 L408.725979,124.142349 C408.725979,122.690391 408.241993,121.480427 407.274021,120.512456 C406.30605,119.544484 405.096085,119.060498 403.644128,119.060498 C402.676157,119.060498 401.708185,119.302491 400.740214,119.786477 C399.772242,120.270463 399.046263,120.754448 398.80427,121.480427 L398.80427,138.661922 L392.996441,138.661922 L392.996441,105.75089 L398.80427,104.298932 Z M267.160142,119.060498 C265.466192,119.060498 264.014235,119.786477 263.046263,121.238434 C262.078292,122.448399 261.594306,124.384342 261.594306,126.80427 C261.594306,132.128114 263.530249,134.790036 267.402135,134.790036 C269.096085,134.790036 270.548043,134.064057 271.516014,132.6121 C272.483986,131.160142 272.967972,129.224199 272.967972,126.80427 C272.967972,121.480427 271.032028,119.060498 267.160142,119.060498 Z M457.850534,119.060498 C456.156584,119.060498 454.704626,119.786477 453.736655,121.238434 C452.768683,122.448399 452.284698,124.384342 452.284698,126.80427 C452.284698,132.128114 454.220641,134.790036 458.092527,134.790036 C459.786477,134.790036 461.238434,134.064057 462.206406,132.6121 C463.174377,131.160142 463.658363,129.224199 463.658363,126.80427 C463.658363,121.480427 461.72242,119.060498 457.850534,119.060498 Z M497.779359,119.060498 C496.085409,119.060498 494.633452,119.786477 493.66548,121.238434 C492.697509,122.448399 492.213523,124.384342 492.213523,126.80427 C492.213523,132.128114 494.149466,134.790036 498.021352,134.790036 C499.715302,134.790036 501.16726,134.064057 502.135231,132.6121 C503.103203,131.160142 503.587189,129.224199 503.587189,126.80427 C503.587189,121.480427 501.651246,119.060498 497.779359,119.060498 Z M522.220641,118.818505 C521.010676,118.818505 519.800712,119.302491 519.074733,120.02847 C518.348754,120.996441 517.864769,121.964413 517.864769,123.174377 C517.864769,124.626335 518.348754,125.836299 519.074733,126.562278 C519.800712,127.288256 521.010676,127.772242 522.220641,127.772242 C523.430605,127.772242 524.640569,127.288256 525.366548,126.562278 C526.092527,125.836299 526.33452,124.626335 526.33452,123.174377 C526.33452,121.964413 525.850534,120.996441 525.124555,120.02847 C524.398577,119.302491 523.430605,118.818505 522.220641,118.818505 Z M353.309609,119.060498 C350.163701,119.060498 348.227758,120.754448 347.259786,124.384342 L359.117438,124.384342 C358.633452,120.754448 356.697509,119.060498 353.309609,119.060498 Z M660.398577,61.9501779 L666.932384,78.6476868 L672.982206,61.9501779 L678.790036,61.9501779 L668.142349,89.7793594 C667.658363,91.4733096 666.206406,92.683274 664.270463,93.6512456 C662.33452,94.6192171 659.914591,95.3451957 657.252669,95.3451957 L657.252669,90.2633452 C661.608541,90.2633452 663.786477,89.2953737 663.786477,87.1174377 C663.786477,85.6654804 663.302491,83.4875445 662.092527,80.5836299 L654.590747,61.9501779 L660.398577,61.9501779 Z M569.409253,61.7081851 C573.039146,61.7081851 575.701068,62.6761566 577.879004,64.8540925 C580.05694,67.0320285 581.024911,69.6939502 581.024911,72.8398577 C581.024911,73.3238434 580.782918,74.2918149 580.540925,75.7437722 L563.359431,75.7437722 C563.359431,77.6797153 564.085409,79.1316726 565.295374,80.0996441 C566.505338,81.0676157 568.199288,81.7935943 570.135231,81.7935943 C572.797153,81.7935943 574.733096,81.0676157 575.94306,79.8576512 L578.120996,84.2135231 C576.185053,85.9074733 573.281139,86.633452 569.16726,86.633452 C565.537367,86.633452 562.633452,85.6654804 560.455516,83.4875445 C558.27758,81.3096085 557.309609,78.405694 557.309609,74.5338078 C557.309609,70.6619217 558.519573,67.7580071 560.939502,65.3380783 C563.359431,62.9181495 566.021352,61.7081851 569.409253,61.7081851 Z M292.569395,61.4661922 C294.989324,61.4661922 297.409253,61.9501779 299.587189,63.1601423 L297.893238,67.5160142 C296.683274,66.5480427 294.989324,66.0640569 292.811388,66.0640569 C290.875445,66.0640569 289.907473,66.7900356 289.907473,68.4839858 C289.907473,69.2099644 290.149466,69.6939502 290.875445,70.1779359 C291.601423,70.6619217 292.811388,71.3879004 294.989324,72.113879 C297.16726,72.8398577 298.619217,74.0498221 299.587189,75.0177936 C300.55516,75.9857651 301.039146,77.6797153 301.039146,79.3736655 C301.039146,81.5516014 300.313167,83.2455516 298.619217,84.6975089 C296.925267,85.9074733 294.747331,86.633452 291.843416,86.633452 C290.149466,86.633452 288.939502,86.3914591 287.97153,86.1494662 C286.761566,85.6654804 285.551601,85.1814947 284.099644,84.455516 L286.035587,80.0996441 C287.729537,81.5516014 289.66548,82.0355872 291.843416,82.0355872 C294.021352,82.0355872 295.231317,81.3096085 295.231317,79.6156584 C295.231317,78.6476868 294.989324,77.9217082 294.263345,77.4377224 C293.537367,76.9537367 292.327402,76.227758 290.391459,75.2597865 C286.27758,73.5658363 284.099644,71.1459075 284.099644,68 C284.099644,65.8220641 284.825623,64.3701068 286.519573,63.1601423 C288.213523,61.9501779 290.149466,61.4661922 292.569395,61.4661922 Z M431.715302,61.7081851 C435.345196,61.7081851 438.007117,62.6761566 440.185053,64.8540925 C442.362989,67.0320285 443.330961,69.6939502 443.330961,72.8398577 C443.330961,73.3238434 443.330961,74.2918149 442.846975,75.7437722 L425.66548,75.7437722 C425.66548,77.6797153 426.391459,79.1316726 427.601423,80.0996441 C428.811388,81.0676157 430.505338,81.7935943 432.441281,81.7935943 C435.103203,81.7935943 437.039146,81.0676157 438.24911,79.8576512 L440.427046,84.2135231 C438.491103,85.9074733 435.587189,86.633452 431.47331,86.633452 C427.843416,86.633452 424.939502,85.6654804 422.761566,83.4875445 C420.58363,81.3096085 419.615658,78.405694 419.615658,74.5338078 C419.615658,70.6619217 420.825623,67.7580071 423.245552,65.3380783 C425.66548,62.9181495 428.327402,61.7081851 431.715302,61.7081851 Z M468.014235,52.9964413 L468.014235,75.2597865 C468.014235,76.9537367 468.498221,78.405694 469.708185,79.6156584 C470.676157,80.8256228 472.370107,81.3096085 474.30605,81.3096085 C476.483986,81.3096085 478.177936,80.8256228 479.3879,79.6156584 C480.597865,78.6476868 481.081851,76.9537367 481.081851,75.2597865 L481.081851,52.9964413 L486.88968,52.9964413 L486.88968,75.7437722 C486.88968,79.1316726 485.679715,81.7935943 483.501779,83.7295374 C481.323843,85.6654804 478.177936,86.633452 474.30605,86.633452 C470.434164,86.633452 467.530249,85.6654804 465.352313,83.7295374 C463.174377,81.7935943 462.206406,79.1316726 462.206406,75.7437722 L462.206406,52.9964413 L468.014235,52.9964413 Z M612.241993,61.4661922 C614.661922,61.4661922 617.081851,61.9501779 619.259786,63.1601423 L617.565836,67.5160142 C616.355872,66.5480427 614.661922,66.0640569 612.483986,66.0640569 C610.548043,66.0640569 609.580071,66.7900356 609.580071,68.4839858 C609.580071,69.2099644 609.822064,69.6939502 610.548043,70.1779359 C611.274021,70.6619217 612.483986,71.3879004 614.661922,72.113879 C616.839858,72.8398577 618.291815,74.0498221 619.259786,75.0177936 C620.227758,76.227758 620.711744,77.6797153 620.711744,79.3736655 C620.711744,81.5516014 619.985765,83.2455516 618.291815,84.6975089 C616.597865,85.9074733 614.419929,86.633452 611.516014,86.633452 C609.822064,86.633452 608.6121,86.3914591 607.644128,86.1494662 C606.434164,85.6654804 605.224199,85.1814947 603.772242,84.455516 L605.708185,80.0996441 C607.402135,81.5516014 609.338078,82.0355872 611.516014,82.0355872 C613.69395,82.0355872 614.903915,81.3096085 614.903915,79.6156584 C614.903915,78.6476868 614.661922,77.9217082 613.935943,77.4377224 C613.209964,76.9537367 612,76.227758 610.064057,75.2597865 C605.950178,73.5658363 603.772242,71.1459075 603.772242,68 C603.772242,65.8220641 604.498221,64.3701068 606.192171,63.1601423 C607.886121,61.9501779 609.822064,61.4661922 612.241993,61.4661922 Z M336.128114,61.9501779 L340.967972,76.227758 L346.775801,61.9501779 L348.711744,61.9501779 L354.761566,76.4697509 L360.085409,61.9501779 L365.651246,61.9501779 L356.697509,86.3914591 L354.519573,86.3914591 L347.985765,71.6298932 L341.451957,86.3914591 L339.274021,86.3914591 L330.078292,61.9501779 L336.128114,61.9501779 Z M537.950178,61.9501779 L543.758007,76.7117438 L550.049822,61.9501779 L556.099644,61.9501779 L544.483986,86.3914591 L542.548043,86.3914591 L531.658363,61.9501779 L537.950178,61.9501779 Z M377.266904,61.4661922 C380.896797,61.4661922 383.558719,62.1921708 385.494662,63.886121 C387.188612,65.5800712 388.156584,68.7259786 388.156584,73.3238434 L388.156584,78.405694 C388.156584,81.5516014 388.882562,83.7295374 390.092527,84.455516 C389.608541,85.1814947 389.124555,85.6654804 388.640569,85.9074733 C388.156584,86.1494662 387.430605,86.1494662 386.704626,86.1494662 C385.978648,86.1494662 385.252669,85.9074733 384.52669,85.1814947 C383.316726,84.9395018 383.074733,84.2135231 382.83274,83.4875445 C382.348754,84.2135231 381.380783,84.9395018 380.170819,85.4234875 C378.960854,85.9074733 377.508897,86.1494662 376.298932,86.1494662 C373.637011,86.1494662 371.701068,85.4234875 370.24911,84.2135231 C368.797153,83.0035587 368.071174,81.0676157 368.071174,78.6476868 C368.071174,75.7437722 369.039146,73.5658363 371.217082,72.113879 C373.395018,70.6619217 376.298932,69.6939502 380.170819,69.6939502 C380.896797,69.6939502 381.622776,69.6939502 382.590747,69.9359431 C382.590747,67.0320285 380.896797,65.5800712 377.266904,65.5800712 C375.088968,65.5800712 373.395018,65.8220641 371.94306,66.5480427 L370.24911,62.9181495 C372.185053,61.9501779 374.604982,61.4661922 377.266904,61.4661922 Z M281.921708,53.2384342 L281.921708,58.3202847 L271.032028,58.3202847 L271.032028,86.1494662 L265.224199,86.1494662 L265.224199,58.3202847 L254.576512,58.3202847 L254.576512,53.2384342 L281.921708,53.2384342 Z M405.822064,61.4661922 C408.725979,61.4661922 410.903915,62.4341637 412.597865,64.1281139 C414.291815,65.8220641 415.017794,68.2419929 415.017794,71.3879004 L415.017794,86.1494662 L409.451957,86.1494662 L409.451957,72.113879 C409.451957,70.1779359 408.967972,68.4839858 408.241993,67.5160142 C407.516014,66.5480427 406.064057,66.0640569 404.370107,66.0640569 C403.644128,66.0640569 402.676157,66.3060498 401.708185,66.7900356 C400.740214,67.2740214 400.014235,67.7580071 399.530249,68.4839858 L399.530249,85.9074733 L393.964413,85.9074733 L393.964413,61.9501779 L398.078292,61.9501779 L399.046263,64.1281139 C400.498221,62.4341637 402.918149,61.4661922 405.822064,61.4661922 Z M505.281139,61.4661922 C508.185053,61.4661922 510.362989,62.4341637 512.05694,64.1281139 C513.75089,65.8220641 514.476868,68.2419929 514.476868,71.3879004 L514.476868,86.1494662 L508.911032,86.1494662 L508.911032,72.113879 C508.911032,70.1779359 508.427046,68.4839858 507.701068,67.5160142 C506.975089,66.5480427 505.523132,66.0640569 503.829181,66.0640569 C503.103203,66.0640569 502.135231,66.3060498 501.16726,66.7900356 C500.199288,67.2740214 499.47331,67.7580071 498.989324,68.4839858 L498.989324,85.9074733 L493.423488,85.9074733 L493.423488,61.9501779 L497.537367,61.9501779 L498.505338,64.1281139 C499.957295,62.4341637 502.377224,61.4661922 505.281139,61.4661922 Z M645.395018,54.6903915 L645.395018,61.7081851 L651.928826,61.7081851 L651.928826,66.3060498 L645.395018,66.3060498 L645.395018,76.9537367 C645.395018,78.6476868 645.637011,79.8576512 646.120996,80.5836299 C646.604982,81.3096085 647.572954,81.5516014 649.024911,81.5516014 C650.476868,81.5516014 651.686833,81.0676157 652.896797,80.341637 L652.896797,85.4234875 C651.686833,85.9074733 649.75089,86.1494662 647.330961,86.1494662 C644.911032,86.1494662 642.975089,85.4234875 641.765125,84.2135231 C640.55516,82.7615658 639.829181,80.8256228 639.829181,78.405694 L639.829181,66.3060498 L636.925267,66.3060498 L636.925267,61.7081851 L639.829181,61.7081851 L639.829181,56.8683274 L645.395018,54.6903915 Z M597.480427,61.4661922 C599.41637,61.4661922 600.868327,61.7081851 601.836299,62.4341637 L599.41637,67.0320285 C598.448399,66.3060498 597.238434,66.0640569 596.02847,66.0640569 C594.818505,66.0640569 593.608541,66.5480427 592.640569,67.7580071 C591.672598,68.9679715 591.188612,70.4199288 591.188612,72.113879 L591.188612,85.9074733 L585.622776,85.9074733 L585.622776,61.9501779 L591.188612,61.9501779 L591.188612,64.1281139 C592.882562,62.4341637 594.818505,61.4661922 597.480427,61.4661922 Z M311.202847,51.544484 L311.202847,63.4021352 C312.654804,62.1921708 314.590747,61.4661922 317.252669,61.4661922 C320.398577,61.4661922 322.576512,62.1921708 324.270463,63.886121 C325.964413,65.5800712 326.690391,68 326.690391,71.1459075 L326.690391,85.9074733 L321.124555,85.9074733 L321.124555,71.1459075 C321.124555,69.6939502 320.640569,68.4839858 319.672598,67.5160142 C318.704626,66.5480427 317.494662,66.0640569 316.042705,66.0640569 C315.074733,66.0640569 314.106762,66.3060498 313.13879,66.7900356 C312.170819,67.2740214 311.44484,67.7580071 311.202847,68.4839858 L311.202847,85.6654804 L305.395018,85.6654804 L305.395018,52.9964413 L311.202847,51.544484 Z M527.544484,61.9501779 L527.544484,85.9074733 L521.978648,85.9074733 L521.978648,66.5480427 L518.83274,66.5480427 L518.83274,61.9501779 L527.544484,61.9501779 Z M632.327402,61.9501779 L632.327402,85.9074733 L626.761566,85.9074733 L626.761566,66.5480427 L623.615658,66.5480427 L623.615658,61.9501779 L632.327402,61.9501779 Z M379.928826,74.2918149 C375.572954,74.2918149 373.153025,75.7437722 373.153025,78.6476868 C373.153025,80.8256228 374.362989,81.7935943 377.024911,81.7935943 C380.412811,81.7935943 382.106762,80.0996441 382.106762,76.7117438 L382.106762,74.5338078 C381.13879,74.2918149 380.412811,74.2918149 379.928826,74.2918149 Z M569.409253,66.0640569 C566.021352,66.0640569 564.085409,68 563.359431,71.3879004 L575.217082,71.3879004 C574.733096,67.7580071 572.797153,66.0640569 569.409253,66.0640569 Z M431.957295,66.0640569 C428.569395,66.0640569 426.633452,68 425.907473,71.3879004 L437.765125,71.3879004 C437.281139,67.7580071 435.345196,66.0640569 431.957295,66.0640569 Z M525.124555,52.5124555 C526.092527,52.5124555 526.818505,52.7544484 527.544484,53.480427 C528.270463,54.2064057 528.512456,54.9323843 528.512456,55.9003559 C528.512456,56.8683274 528.270463,57.594306 527.544484,58.3202847 C526.818505,59.0462633 526.092527,59.2882562 525.124555,59.2882562 C524.156584,59.2882562 523.430605,59.0462633 522.704626,58.3202847 C521.978648,57.594306 521.736655,56.8683274 521.736655,55.9003559 C521.736655,54.9323843 521.978648,54.2064057 522.704626,53.480427 C523.430605,52.9964413 524.156584,52.5124555 525.124555,52.5124555 Z M629.66548,52.5124555 C630.633452,52.5124555 631.359431,52.7544484 632.085409,53.480427 C632.811388,54.2064057 633.053381,54.9323843 633.053381,55.9003559 C633.053381,56.8683274 632.811388,57.594306 632.085409,58.3202847 C631.359431,59.0462633 630.633452,59.2882562 629.66548,59.2882562 C628.697509,59.2882562 627.97153,59.0462633 627.245552,58.3202847 C626.519573,57.594306 626.27758,56.8683274 626.27758,55.9003559 C626.27758,54.9323843 626.519573,54.2064057 627.245552,53.480427 C627.97153,52.9964413 628.697509,52.5124555 629.66548,52.5124555 Z" id="Combined-Shape"></path><path d="M440.427046,177.380783 C444.298932,177.380783 446.234875,179.316726 446.234875,182.946619 C446.234875,185.608541 445.508897,188.02847 443.814947,189.72242 C442.120996,191.41637 440.185053,192.384342 437.523132,192.384342 C436.313167,192.384342 435.345196,192.142349 434.619217,191.658363 L433.409253,197.708185 L430.021352,197.708185 L432.925267,181.978648 C432.925267,181.817319 432.952155,181.629102 432.988006,181.431923 L433.104521,180.831422 C433.140372,180.634243 433.16726,180.446026 433.16726,180.284698 C433.16726,179.558719 433.16726,178.590747 432.925267,177.864769 L436.313167,177.380783 C436.55516,177.622776 436.55516,178.106762 436.55516,178.83274 C437.765125,177.864769 438.975089,177.380783 440.427046,177.380783 Z M488.58363,177.380783 C492.455516,177.380783 494.391459,179.316726 494.391459,182.946619 C494.391459,185.608541 493.66548,188.02847 491.97153,189.72242 C490.27758,191.41637 488.341637,192.384342 485.679715,192.384342 C484.469751,192.384342 483.501779,192.142349 482.775801,191.658363 L481.565836,197.708185 L478.177936,197.708185 L481.081851,181.978648 C481.081851,181.817319 481.108739,181.629102 481.144589,181.431923 L481.261105,180.831422 C481.296955,180.634243 481.323843,180.446026 481.323843,180.284698 C481.323843,179.558719 481.323843,178.590747 481.081851,177.864769 L484.469751,177.380783 C484.711744,177.622776 484.711744,178.106762 484.711744,178.83274 C485.921708,177.864769 487.131673,177.380783 488.58363,177.380783 Z M349.679715,177.380783 C353.551601,177.380783 355.487544,179.316726 355.487544,182.946619 C355.487544,185.608541 354.761566,188.02847 353.067616,189.72242 C351.373665,191.41637 349.437722,192.384342 346.775801,192.384342 C345.807829,192.384342 344.839858,192.142349 343.871886,191.658363 L342.661922,197.708185 L339.274021,197.708185 L342.177936,181.978648 C342.177936,181.817319 342.204824,181.629102 342.240675,181.431923 L342.35719,180.831422 C342.393041,180.634243 342.419929,180.446026 342.419929,180.284698 C342.419929,179.558719 342.419929,178.590747 342.177936,177.864769 L345.565836,177.380783 C345.807829,177.622776 345.807829,178.106762 345.807829,178.83274 C347.017794,177.864769 348.227758,177.380783 349.679715,177.380783 Z M513.992883,177.622776 C515.44484,177.622776 516.896797,177.864769 517.622776,178.590747 C518.590747,179.316726 519.074733,180.042705 519.074733,181.252669 C519.074733,182.946619 518.348754,184.156584 516.896797,185.124555 C515.44484,186.092527 513.75089,186.576512 511.572954,186.576512 C510.846975,186.33452 509.879004,186.092527 508.911032,185.850534 L508.911032,186.576512 L508.911032,186.576512 C508.911032,187.544484 509.153025,188.270463 509.879004,188.996441 C510.604982,189.480427 511.330961,189.72242 512.298932,189.72242 C512.782918,189.72242 513.508897,189.480427 514.234875,189.238434 C514.960854,188.996441 515.686833,188.512456 515.928826,188.270463 L515.44484,191.900356 C514.234875,192.384342 512.782918,192.626335 511.330961,192.626335 C509.637011,192.626335 508.185053,192.142349 506.975089,190.932384 C505.765125,189.72242 505.281139,188.270463 505.281139,186.33452 C505.281139,183.914591 506.007117,181.736655 507.701068,180.042705 C509.395018,178.348754 511.330961,177.622776 513.992883,177.622776 Z M456.882562,177.622776 C458.33452,177.622776 459.786477,177.864769 460.512456,178.590747 C461.480427,179.316726 461.964413,180.042705 461.964413,181.252669 C461.964413,182.946619 461.238434,184.156584 459.786477,185.124555 C458.33452,186.092527 456.640569,186.576512 454.462633,186.576512 C453.736655,186.33452 452.768683,186.092527 451.800712,185.850534 L451.800712,186.576512 L451.800712,186.576512 C451.800712,187.544484 452.042705,188.270463 452.768683,188.996441 C453.494662,189.480427 454.220641,189.72242 455.188612,189.72242 C455.672598,189.72242 456.398577,189.480427 457.124555,189.238434 C457.850534,188.996441 458.576512,188.512456 458.818505,188.270463 L458.33452,191.900356 C457.124555,192.384342 455.672598,192.626335 454.220641,192.626335 C452.52669,192.626335 451.074733,192.142349 449.864769,190.932384 C448.654804,189.72242 448.170819,188.270463 448.170819,186.33452 C448.170819,183.914591 448.896797,181.736655 450.590747,180.042705 C452.284698,178.348754 454.220641,177.622776 456.882562,177.622776 Z M310.960854,177.622776 C312.412811,177.622776 313.864769,177.864769 314.590747,178.590747 C315.558719,179.316726 316.042705,180.042705 316.042705,181.252669 C316.042705,182.946619 315.316726,184.156584 313.864769,185.124555 C312.412811,186.092527 310.718861,186.576512 308.540925,186.576512 C307.814947,186.33452 306.846975,186.092527 305.879004,185.850534 L305.879004,186.576512 L305.879004,186.576512 C305.879004,187.544484 306.120996,188.270463 306.846975,188.996441 C307.572954,189.480427 308.298932,189.72242 309.266904,189.72242 C309.75089,189.72242 310.476868,189.480427 311.202847,189.238434 C311.928826,188.996441 312.654804,188.512456 312.896797,188.270463 L312.412811,191.900356 C311.202847,192.384342 309.75089,192.626335 308.298932,192.626335 C306.604982,192.626335 305.153025,192.142349 303.94306,190.932384 C302.733096,189.72242 302.24911,188.270463 302.24911,186.33452 C302.24911,183.914591 302.975089,181.736655 304.669039,180.042705 C306.362989,178.348754 308.298932,177.622776 310.960854,177.622776 Z M287.003559,177.622776 C288.455516,177.622776 289.907473,177.864769 290.633452,178.590747 C291.601423,179.316726 292.085409,180.042705 292.085409,181.252669 C292.085409,182.946619 291.359431,184.156584 289.907473,185.124555 C288.455516,186.092527 286.761566,186.576512 284.58363,186.576512 C283.857651,186.33452 282.88968,186.092527 281.921708,185.850534 L281.921708,186.576512 L281.921708,186.576512 C281.921708,187.544484 282.163701,188.270463 282.88968,188.996441 C283.615658,189.480427 284.341637,189.72242 285.309609,189.72242 C285.793594,189.72242 286.519573,189.480427 287.245552,189.238434 C287.97153,188.996441 288.697509,188.512456 288.939502,188.270463 L288.455516,191.900356 C287.245552,192.384342 285.793594,192.626335 284.341637,192.626335 C282.647687,192.626335 281.19573,192.142349 279.985765,190.932384 C278.775801,189.72242 278.291815,188.270463 278.291815,186.33452 C278.291815,183.914591 279.017794,181.736655 280.711744,180.042705 C282.405694,178.348754 284.341637,177.622776 287.003559,177.622776 Z M403.886121,177.622776 C405.338078,177.622776 406.790036,177.864769 407.516014,178.590747 C408.483986,179.316726 408.967972,180.042705 408.967972,181.252669 C408.967972,182.946619 408.241993,184.156584 406.790036,185.124555 C405.338078,186.092527 403.644128,186.576512 401.466192,186.576512 C400.740214,186.33452 399.772242,186.092527 398.80427,185.850534 L398.80427,186.576512 L398.80427,186.576512 C398.80427,187.544484 399.046263,188.270463 399.772242,188.996441 C400.498221,189.480427 401.224199,189.72242 402.192171,189.72242 C402.676157,189.72242 403.402135,189.480427 404.128114,189.238434 C404.854093,188.996441 405.580071,188.512456 405.822064,188.270463 L405.338078,191.900356 C404.128114,192.384342 402.676157,192.626335 401.224199,192.626335 C399.530249,192.626335 398.078292,192.142349 396.868327,190.932384 C395.658363,189.72242 395.174377,188.270463 395.174377,186.33452 C395.174377,183.914591 395.900356,181.736655 397.594306,180.042705 C399.288256,178.348754 401.224199,177.622776 403.886121,177.622776 Z M472.128114,177.380783 C474.064057,177.380783 475.516014,177.864769 476.483986,178.83274 C477.451957,179.800712 477.935943,181.252669 477.935943,182.946619 C477.935943,185.608541 477.209964,187.786477 475.516014,189.72242 C473.822064,191.658363 471.886121,192.384342 469.224199,192.384342 C467.288256,192.384342 465.836299,191.900356 464.868327,190.932384 C463.900356,189.964413 463.658363,188.512456 463.658363,186.576512 C463.658363,183.914591 464.384342,181.736655 466.078292,180.042705 C467.772242,178.348754 469.708185,177.380783 472.128114,177.380783 Z M365.893238,177.380783 C367.829181,177.380783 369.281139,177.864769 370.24911,178.83274 C371.217082,179.800712 371.701068,181.252669 371.701068,182.946619 C371.701068,185.608541 370.975089,187.786477 369.281139,189.72242 C367.587189,191.658363 365.651246,192.384342 362.989324,192.384342 C361.053381,192.384342 359.601423,191.900356 358.633452,190.932384 C357.66548,189.964413 357.423488,188.512456 357.423488,186.576512 C357.423488,183.914591 358.149466,181.736655 359.843416,180.042705 C361.537367,178.348754 363.47331,177.380783 365.893238,177.380783 Z M376.782918,177.622776 L378.234875,185.608541 L383.316726,177.622776 L384.52669,177.622776 L386.946619,185.608541 L391.060498,177.622776 L394.690391,177.622776 L386.946619,192.384342 L385.736655,192.384342 L383.074733,183.914591 L377.508897,192.384342 L376.298932,192.384342 L373.395018,177.622776 L376.782918,177.622776 Z M257.72242,172.298932 L259.174377,184.398577 L265.466192,172.298932 L266.918149,172.298932 L268.854093,184.156584 L274.661922,172.298932 L278.533808,172.298932 L268.6121,192.384342 L267.160142,192.384342 L264.982206,180.284698 L258.448399,192.384342 L256.996441,192.384342 L254.092527,172.298932 L257.72242,172.298932 Z M422.27758,177.622776 L421.309609,181.010676 C420.58363,180.52669 419.857651,180.042705 419.131673,180.042705 C418.163701,180.042705 417.437722,180.52669 416.711744,181.252669 C415.985765,181.978648 415.501779,182.946619 415.259786,183.914591 L413.807829,192.142349 L410.419929,192.142349 L413.081851,177.622776 L416.469751,177.622776 L416.227758,178.83274 C417.437722,177.864769 418.88968,177.380783 420.341637,177.380783 C420.825623,177.380783 421.309609,177.380783 422.27758,177.622776 Z M503.587189,171.330961 L500.683274,184.882562 C500.199288,186.818505 500.199288,188.270463 500.199288,188.996441 C500.199288,189.480427 500.441281,189.964413 500.683274,190.206406 C500.925267,190.932384 501.409253,190.932384 501.893238,190.932384 C501.409253,191.900356 500.441281,192.142349 499.47331,192.142349 C498.747331,192.142349 498.021352,191.900356 497.537367,191.41637 C497.053381,190.932384 496.811388,190.206406 496.811388,189.238434 C496.811388,188.02847 497.053381,186.576512 497.537367,184.398577 L500.199288,171.330961 L503.587189,171.330961 Z M334.676157,177.380783 C337.580071,177.380783 339.032028,178.590747 339.032028,181.252669 C339.274021,181.736655 339.032028,182.220641 339.032028,182.704626 L337.338078,192.142349 L333.950178,192.142349 L335.644128,182.946619 L335.644128,181.978648 L335.644128,181.978648 C335.644128,180.768683 334.918149,180.042705 333.708185,180.042705 C333.224199,180.042705 332.740214,180.284698 332.256228,180.52669 C331.772242,180.768683 331.288256,181.252669 331.046263,181.494662 L329.11032,191.900356 L325.72242,191.900356 L327.658363,181.736655 L327.658363,181.494662 L327.658363,181.494662 C327.658363,180.52669 326.932384,180.042705 325.480427,180.042705 C324.996441,180.042705 324.512456,180.284698 324.02847,180.52669 C323.544484,180.768683 323.060498,181.252669 322.818505,181.736655 L320.882562,192.142349 L317.010676,192.142349 L318.946619,181.736655 L318.946619,180.52669 L318.946619,180.52669 C318.946619,179.558719 318.704626,178.83274 318.462633,177.864769 L321.850534,177.380783 C321.850534,177.864769 322.092527,178.348754 322.092527,178.590747 C323.302491,177.622776 324.512456,177.380783 326.206406,177.380783 C328.142349,177.380783 329.594306,177.864769 330.320285,178.83274 C331.530249,177.864769 332.982206,177.380783 334.676157,177.380783 Z M365.651246,180.284698 C364.199288,180.284698 363.231317,181.010676 362.263345,182.220641 C361.537367,183.188612 361.053381,184.882562 361.053381,186.576512 C361.053381,188.754448 362.021352,189.72242 363.715302,189.72242 C365.16726,189.72242 366.377224,188.996441 367.103203,187.786477 C367.829181,186.576512 368.313167,184.882562 368.313167,183.188612 C368.313167,181.252669 367.345196,180.284698 365.651246,180.284698 Z M471.644128,180.284698 C470.192171,180.284698 469.224199,181.010676 468.256228,182.220641 C467.530249,183.188612 467.046263,184.882562 467.046263,186.576512 C467.046263,188.754448 468.014235,189.72242 469.708185,189.72242 C471.160142,189.72242 472.370107,188.996441 473.096085,187.786477 C473.822064,186.576512 474.30605,184.882562 474.30605,183.188612 C474.30605,181.252669 473.338078,180.284698 471.644128,180.284698 Z M487.373665,180.284698 C486.88968,180.284698 486.405694,180.52669 485.679715,180.768683 C484.953737,181.010676 484.711744,181.494662 484.227758,181.736655 L483.259786,188.754448 C483.743772,189.238434 484.469751,189.480427 485.19573,189.480427 C486.88968,189.480427 488.341637,188.996441 489.309609,187.786477 C490.27758,186.818505 490.761566,185.124555 490.761566,183.188612 C490.761566,182.220641 490.519573,181.494662 489.793594,181.010676 C489.309609,180.52669 488.341637,180.284698 487.373665,180.284698 Z M348.469751,180.284698 C347.985765,180.284698 347.501779,180.52669 346.775801,180.768683 C346.049822,181.010676 345.807829,181.494662 345.323843,181.736655 L344.355872,188.754448 C344.839858,189.238434 345.565836,189.480427 346.291815,189.480427 C347.985765,189.480427 349.437722,188.996441 350.405694,187.786477 C351.373665,186.818505 351.857651,185.124555 351.857651,183.188612 C351.857651,182.220641 351.615658,181.494662 350.88968,181.010676 C350.405694,180.52669 349.437722,180.284698 348.469751,180.284698 Z M439.217082,180.284698 C438.733096,180.284698 438.24911,180.52669 437.523132,180.768683 C436.797153,181.010676 436.55516,181.494662 436.071174,181.736655 L435.103203,188.754448 C435.587189,189.238434 436.313167,189.480427 437.039146,189.480427 C438.733096,189.480427 440.185053,188.996441 441.153025,187.786477 C442.120996,186.818505 442.604982,185.124555 442.604982,183.188612 C442.604982,182.220641 442.362989,181.494662 441.637011,181.010676 C441.153025,180.52669 440.185053,180.284698 439.217082,180.284698 Z M456.156584,180.042705 C455.430605,180.042705 454.704626,180.284698 453.978648,181.010676 L452.52669,183.188612 L452.52669,183.188612 C453.010676,183.430605 453.736655,183.430605 454.462633,183.430605 C455.672598,183.430605 456.640569,183.188612 457.608541,182.946619 C458.576512,182.462633 458.818505,181.978648 458.818505,181.252669 C458.818505,180.52669 457.850534,180.042705 456.156584,180.042705 Z M286.27758,180.042705 C285.551601,180.042705 284.825623,180.284698 284.099644,181.010676 C283.373665,181.736655 282.88968,182.462633 282.647687,183.188612 C283.131673,183.430605 283.857651,183.430605 284.58363,183.430605 C285.793594,183.430605 286.761566,183.188612 287.729537,182.946619 C288.697509,182.462633 288.939502,181.978648 288.939502,181.252669 C288.939502,180.52669 287.97153,180.042705 286.27758,180.042705 Z M309.992883,180.042705 C309.266904,180.042705 308.540925,180.284698 307.814947,181.010676 C307.088968,181.736655 306.846975,182.462633 306.362989,183.188612 C306.846975,183.430605 307.572954,183.430605 308.298932,183.430605 C309.508897,183.430605 310.476868,183.188612 311.44484,182.946619 C312.412811,182.462633 312.654804,181.978648 312.654804,181.252669 C312.654804,180.52669 311.686833,180.042705 309.992883,180.042705 Z M402.918149,180.042705 C402.192171,180.042705 401.466192,180.284698 400.740214,181.010676 L399.288256,183.188612 L399.288256,183.188612 C399.772242,183.430605 400.498221,183.430605 401.224199,183.430605 C402.434164,183.430605 403.402135,183.188612 404.370107,182.946619 C405.338078,182.462633 405.580071,181.978648 405.580071,181.252669 C405.580071,180.52669 404.6121,180.042705 402.918149,180.042705 Z M513.266904,180.042705 C512.540925,180.042705 511.814947,180.284698 511.088968,181.010676 C510.981416,181.172005 510.861913,181.333333 510.738427,181.494662 L510.363985,181.978648 C510.05527,182.381969 509.771451,182.785291 509.637011,183.188612 C510.120996,183.430605 510.846975,183.430605 511.572954,183.430605 C512.782918,183.430605 513.75089,183.188612 514.718861,182.946619 C515.686833,182.462633 515.928826,181.978648 515.928826,181.252669 C515.928826,180.52669 514.960854,180.042705 513.266904,180.042705 Z" id="Combined-Shape"></path></g></g></g></svg> 